# Blender 4.0.1
# www.blender.org
mtllib BoxDoor.mtl
o Cube
v -2.094360 0.036998 1.412827
v -2.094360 3.958453 1.412827
v -2.094360 0.036998 -1.412827
v -2.094360 3.958453 -1.412827
v 2.094360 0.036998 1.412827
v 2.094360 3.958453 1.412827
v 2.094360 0.036998 -1.412827
v 2.094360 3.958453 -1.412827
vn -0.0000 -0.0000 -1.0000
vn 1.0000 -0.0000 -0.0000
vn -0.0000 -0.0000 1.0000
vn -0.0000 -1.0000 -0.0000
vn -0.0000 1.0000 -0.0000
vt 0.778374 0.030696
vt 0.778374 1.010580
vt 0.016870 1.010580
vt 0.016870 0.030696
vt 0.016870 1.010580
vt 0.778374 1.010580
s 0
usemtl Material.001
f 3/1/1 4/2/1 8/3/1 7/4/1
f 7/4/2 8/3/2 6/5/2 5/4/2
f 5/4/3 6/5/3 2/6/3 1/1/3
f 3/1/4 7/4/4 5/4/4 1/1/4
f 8/3/5 4/2/5 2/6/5 6/5/5
